<?xml version="1.0" encoding="UTF-8" standalone="no"?>
<!-- Created with Inkscape (http://www.inkscape.org/) -->

<svg
   width="1280mm"
   height="640mm"
   viewBox="0 0 1280 640"
   version="1.1"
   id="svg1932"
   inkscape:version="1.2.2 (b0a8486541, 2022-12-01)"
   sodipodi:docname="social.svg"
   xmlns:inkscape="http://www.inkscape.org/namespaces/inkscape"
   xmlns:sodipodi="http://sodipodi.sourceforge.net/DTD/sodipodi-0.dtd"
   xmlns="http://www.w3.org/2000/svg"
   xmlns:svg="http://www.w3.org/2000/svg">
  <sodipodi:namedview
     id="namedview1934"
     pagecolor="#ffffff"
     bordercolor="#666666"
     borderopacity="1.0"
     inkscape:showpageshadow="2"
     inkscape:pageopacity="0.0"
     inkscape:pagecheckerboard="0"
     inkscape:deskcolor="#d1d1d1"
     inkscape:document-units="mm"
     showgrid="false"
     inkscape:zoom="0.2102413"
     inkscape:cx="1962.0312"
     inkscape:cy="944.15321"
     inkscape:window-width="1920"
     inkscape:window-height="1130"
     inkscape:window-x="1920"
     inkscape:window-y="0"
     inkscape:window-maximized="1"
     inkscape:current-layer="layer1" />
  <defs
     id="defs1929">
    <linearGradient
       id="paint0_linear_89_8"
       x1="30.5"
       y1="0"
       x2="30.5"
       y2="65"
       gradientUnits="userSpaceOnUse">
      <stop
         stop-color="#6364FF"
         id="stop155" />
      <stop
         offset="1"
         stop-color="#563ACC"
         id="stop157" />
    </linearGradient>
    <filter
       inkscape:label="In and Out"
       inkscape:menu="Shadows and Glows"
       inkscape:menu-tooltip="Inner colorized shadow, outer black shadow"
       style="color-interpolation-filters:sRGB;"
       id="filter9125"
       x="-0.039081717"
       y="-0.04037867"
       width="1.0985185"
       height="1.1017879">
      <feGaussianBlur
         result="result0"
         in="SourceAlpha"
         stdDeviation="4"
         id="feGaussianBlur9119" />
      <feOffset
         dx="5"
         dy="5"
         result="result4"
         id="feOffset9121" />
      <feComposite
         in="SourceGraphic"
         in2="result4"
         operator="xor"
         result="result3"
         id="feComposite9123" />
    </filter>
  </defs>
  <g
     inkscape:label="Vrstva 1"
     inkscape:groupmode="layer"
     id="layer1">
    <g
       id="g4235"
       transform="matrix(5.6265795,0,0,5.6265795,468.66901,137.13627)">
      <path
         d="M 60.7539,14.3904 C 59.8143,7.40642 53.7273,1.90257 46.5117,0.836066 45.2943,0.655854 40.6819,0 29.9973,0 H 29.9175 C 19.2299,0 16.937,0.655854 15.7196,0.836066 8.70488,1.87302 2.29885,6.81852 0.744617,13.8852 -0.00294988,17.3654 -0.0827298,21.2237 0.0561464,24.7629 0.254119,29.8384 0.292531,34.905 0.753482,39.9598 c 0.318668,3.3577 0.874578,6.6886 1.663558,9.9678 1.47741,6.0563 7.45795,11.0963 13.31736,13.1525 6.2733,2.1443 13.0198,2.5003 19.484,1.0281 0.7111,-0.1654 1.4134,-0.3574 2.1068,-0.5761 1.5719,-0.4992 3.4128,-1.0576 4.7661,-2.0384 0.0186,-0.0138 0.0338,-0.0316 0.0445,-0.052 0.0108,-0.0205 0.0168,-0.0431 0.0176,-0.0662 v -4.8982 c -4e-4,-0.0216 -0.0055,-0.0428 -0.0151,-0.0622 -0.0096,-0.0193 -0.0234,-0.0363 -0.0404,-0.0496 -0.017,-0.0133 -0.0368,-0.0226 -0.0579,-0.0273 -0.021,-0.0047 -0.0429,-0.0046 -0.0639,2e-4 -4.1416,0.9892 -8.3856,1.485 -12.6437,1.4772 -7.3279,0 -9.2988,-3.4772 -9.8631,-4.9248 -0.4537,-1.2511 -0.7418,-2.5562 -0.8569,-3.882 -0.0012,-0.0222 0.0029,-0.0445 0.0119,-0.0649 0.009,-0.0203 0.0227,-0.0383 0.04,-0.0524 0.0173,-0.0141 0.0376,-0.024 0.0594,-0.0287 0.0218,-0.0048 0.0444,-0.0043 0.066,0.0013 4.0725,0.9824 8.2473,1.4782 12.4368,1.4771 1.0075,0 2.0122,0 3.0198,-0.0266 4.2135,-0.1182 8.6546,-0.3338 12.8002,-1.1433 0.1034,-0.0207 0.2069,-0.0384 0.2955,-0.065 6.539,-1.2556 12.7618,-5.1966 13.3942,-15.1762 0.0236,-0.3929 0.0827,-4.1153 0.0827,-4.523 0.0029,-1.3856 0.4462,-9.829 -0.065,-15.0167 z"
         fill="url(#paint0_linear_89_8)"
         id="path151"
         style="fill:url(#paint0_linear_89_8)" />
      <path
         d="M 50.3943,22.237 V 39.5876 H 43.5185 V 22.7481 c 0,-3.5452 -1.4774,-5.3532 -4.4825,-5.3532 -3.3035,0 -4.9582,2.1389 -4.9582,6.3636 v 9.2174 h -6.8344 v -9.2174 c 0,-4.2247 -1.6577,-6.3636 -4.9612,-6.3636 -2.9873,0 -4.4795,1.808 -4.4795,5.3532 V 39.5876 H 10.9298 V 22.237 c 0,-3.5452 0.9052,-6.3616 2.7155,-8.4493 1.8675,-2.0828 4.317,-3.1522 7.3575,-3.1522 3.5192,0 6.1785,1.353 7.9514,4.0562 l 1.7108,2.8716 1.7138,-2.8716 c 1.7729,-2.7032 4.4322,-4.0562 7.9455,-4.0562 3.0376,0 5.4871,1.0694 7.3604,3.1522 1.8084,2.0857 2.7116,4.9022 2.7096,8.4493 z"
         fill="#ffffff"
         id="path153" />
    </g>
    <g
       id="g5972"
       transform="matrix(1.1581293,0,0,1.1581293,141.53727,137.91891)">
      <g
         fill="#1a1918"
         transform="translate(0,281.86)"
         id="g16">
        <path
           d="m 67.5168,32.0035 c -0.54152,0 -1.12617,-0.13685 -1.53212,-0.68583 L 48.60118,8.45647 v 23.3187 H 44.63687 V 3.06097 c 0,-1.14253 0.94592,-2.0571 2.0278,-2.0571 0.62971,0 1.17084,0.1826 1.57485,0.73158 l 17.3396,22.8159 V 1.32375 h 3.96392 v 28.6681 c 0,1.18907 -0.94592,2.01175 -2.02625,2.01175"
           id="path2" />
        <path
           d="m 100.306,32.278 c -3.96276,0 -8.10693,-0.82347 -11.9803,-2.28584 l 0.94631,-3.2927 c 3.55797,1.14332 7.43099,1.96639 11.034,1.96639 4.99958,0 7.61163,-1.7834 7.61163,-4.29759 0,-2.28663 -2.02741,-3.42956 -9.00817,-6.72187 -6.98076,-3.29192 -9.72722,-5.39477 -9.72722,-9.51055 0,-5.16563 3.96276,-7.27006 11.4384,-7.27006 3.10813,0 7.88162,0.64087 10.63,1.46395 l -0.63087,3.38302 c -3.01839,-0.73119 -6.80051,-1.23402 -9.90864,-1.23402 -5.26839,0 -7.4306,1.00528 -7.4306,3.52066 0,2.46844 1.57562,3.52026 8.96194,6.94982 7.79188,3.61216 9.77345,5.4413 9.77345,9.18992 0,5.4417 -5.13515,8.13888 -11.71,8.13888"
           id="path4" />
        <path
           d="m 130.798,1.32367 h 4.09833 v 30.4511 H 130.798 Z"
           id="path6" />
        <path
           d="m 169.758,17.9669 h -10.1798 v 10.334 h 10.1798 c 3.46746,0 5.58422,-2.19514 5.58422,-5.2591 0,-2.88057 -2.2065,-5.07492 -5.58422,-5.07492 m -1.98274,-13.1685 h -8.19705 v 9.73929 h 8.19705 c 3.28838,0 5.67512,-2.10364 5.67512,-5.02957 0,-2.88057 -2.07208,-4.70972 -5.67512,-4.70972 m 2.02741,26.9766 h -12.2499 c -1.17162,0 -2.07247,-0.91497 -2.07247,-2.0575 V 3.38138 c 0,-1.09796 0.90086,-2.0575 2.07247,-2.0575 h 10.1332 c 6.21509,0 9.90786,3.06317 9.90786,7.86439 0,2.60569 -1.53134,5.02917 -3.8738,6.44659 3.4694,1.05182 5.80992,3.932 5.80992,7.40691 0,4.84657 -4.00743,8.73322 -9.72722,8.73322"
           id="path8" />
        <path
           d="m 199.212,31.7751 c -1.12422,0 -2.02547,-0.96032 -2.02547,-2.0575 V 1.324 h 4.09755 v 26.7479 h 16.304 v 3.70326 h -18.3761 z"
           id="path10" />
        <path
           d="m 245.526,32.278 c -8.3773,0 -13.4215,-3.10892 -13.4215,-9.37291 0,-2.97207 1.66691,-5.8069 4.90984,-7.13281 -2.61244,-1.64616 -3.96314,-3.97814 -3.96314,-6.53848 0,-5.66926 4.36987,-8.36802 12.5658,-8.36802 2.74763,0 6.62026,0.32063 9.86358,1.05261 l -0.45101,3.38302 c -3.42201,-0.54898 -6.62104,-0.86804 -9.72839,-0.86804 -5.31462,0 -8.15238,1.46237 -8.15238,4.98343 0,2.78947 2.61283,4.98382 6.08146,4.98382 h 7.02504 c 0.99098,0 1.75626,0.77733 1.75626,1.73726 0,1.00568 -0.76528,1.78301 -1.75626,1.78301 h -7.56501 c -3.9647,0 -6.48546,1.96561 -6.48546,4.98421 0,4.43484 4.09833,5.76075 9.23232,5.76075 2.79269,0 6.57442,-0.3648 9.63671,-1.09678 l 0.58697,3.33727 c -2.92827,0.82347 -6.757,1.37166 -10.1347,1.37166"
           id="path12" />
        <path
           d="M 14.138,7.0347 21.31571,25.019 10.47511,16.34967 14.13797,7.03474 Z M 26.8894,29.1624 15.8495,2.1878 C 15.53445,1.41047 14.90358,0.99873 14.13791,0.99873 c -0.76567,0 -1.44121,0.41174 -1.75626,1.18907 L 0.26375,31.7752 h 4.14456 l 4.79757,-12.1983 14.3142,11.7408 c 0.57571,0.47208 0.99098,0.68583 1.53212,0.68583 1.08033,0 2.02625,-0.82268 2.02625,-2.01135 0,-0.19285 -0.06798,-0.49968 -0.18918,-0.82978 z"
           id="path14" />
      </g>
      <path
         d="m 255.879,127.868 c 0,70.4551 -57.1101,127.565 -127.566,127.565 C 57.8629,255.433 0.747,198.3234 0.747,127.868 0.747,57.4179 57.8631,0.302 128.313,0.302 c 70.4561,0 127.566,57.1161 127.566,127.566"
         fill="#1a1918"
         id="path18" />
      <path
         d="M 130.46,78.2289 163.4716,159.7052 113.6081,120.4274 130.46,78.229 Z m 58.6445,100.245 -50.7786,-122.202 c -1.44952,-3.52436 -4.34807,-5.38926 -7.86591,-5.38926 -3.52436,0 -6.63386,1.86489 -8.08339,5.38926 l -55.7329,134.04 H 85.709 l 22.0623,-55.2653 65.8389,53.1899 c 2.64792,2.14114 4.55852,3.1095 7.0422,3.1095 4.97389,0 9.32146,-3.72878 9.32146,-9.11101 0,-0.87594 -0.30939,-2.2662 -0.86941,-3.76143 z"
         fill="#ffffff"
         id="path20" />
    </g>
    <text
       xml:space="preserve"
       style="font-style:normal;font-weight:normal;font-size:52.5994px;line-height:1.25;font-family:sans-serif;fill:#000000;fill-opacity:1;stroke:none;stroke-width:1.31499;filter:url(#filter9125)"
       x="908.1275"
       y="304.98346"
       id="text9111"
       transform="matrix(1.270721,0,0,1.1968383,-316.30138,-142.43745)"><tspan
         sodipodi:role="line"
         id="tspan9109"
         style="stroke-width:1.31499"
         x="908.1275"
         y="304.98346">Ansible </tspan><tspan
         sodipodi:role="line"
         style="stroke-width:1.31499"
         x="908.1275"
         y="370.7327"
         id="tspan9113">role</tspan><tspan
         sodipodi:role="line"
         style="stroke-width:1.31499"
         x="908.1275"
         y="436.48196"
         id="tspan9115">Mastodon</tspan><tspan
         sodipodi:role="line"
         style="stroke-width:1.31499"
         x="908.1275"
         y="502.2312"
         id="tspan9117">Server</tspan></text>
  </g>
</svg>
